<svg width="25" height="25" viewBox="0 0 25 25" fill="none" xmlns="http://www.w3.org/2000/svg">
<g id="Emoji">
<path id="Vector" d="M3.37999 6.33024C4.03353 5.87346 5.0187 5.96106 5.6055 6.44565L4.93249 5.46743C4.39089 4.695 4.58486 3.8593 5.35799 3.31701C6.13111 2.77679 8.32186 4.22918 8.32186 4.22918C7.77539 3.4491 7.87759 2.46045 8.65767 1.91328C9.43775 1.3682 10.514 1.55662 11.0605 2.33809L18.305 12.5722L17.3817 21.5237L9.67622 18.7134L2.95519 8.74834C2.40385 7.9634 2.59435 6.88088 3.37999 6.33024Z" fill="#EF9645"/>
<path id="Vector_2" d="M1.87135 12.0237C1.87135 12.0237 1.08432 10.8765 2.23218 10.0902C3.37865 9.30385 4.16498 10.4503 4.16498 10.4503L7.81575 15.7746C7.94159 15.5646 8.07925 15.3574 8.2329 15.153L3.16591 7.76455C3.16591 7.76455 2.37958 6.61808 3.52674 5.83174C4.67321 5.04541 5.45954 6.19189 5.45954 6.19189L10.2255 13.1424C10.4028 12.9977 10.5842 12.8524 10.7713 12.7099L5.2461 4.6512C5.2461 4.6512 4.45977 3.50472 5.60693 2.71839C6.7534 1.93206 7.53973 3.07853 7.53973 3.07853L13.0649 11.1358C13.2679 11.0114 13.4688 10.9036 13.6705 10.7896L8.50613 3.2586C8.50613 3.2586 7.7198 2.11213 8.86627 1.32579C10.0127 0.53946 10.7991 1.68594 10.7991 1.68594L16.2596 9.64939L17.0897 10.8605C13.6496 13.2202 13.3221 17.6594 15.2876 20.526C15.6804 21.0996 16.254 20.7067 16.254 20.7067C13.895 17.2659 14.6153 13.3996 18.0561 11.0406L17.0417 5.96384C17.0417 5.96384 16.6628 4.62617 17.9998 4.24656C19.3374 3.86765 19.7171 5.20532 19.7171 5.20532L20.8886 8.68438C21.353 10.0638 21.8473 11.4383 22.5015 12.7384C24.3488 16.4094 23.2455 20.9716 19.7622 23.3612C15.9627 25.9663 10.7685 24.9979 8.16268 21.199L1.87135 12.0237Z" fill="#FFDC5D"/>
<g id="Group">
<path id="Vector_3" d="M8.3426 22.2482C5.56157 22.2482 2.75135 19.438 2.75135 16.657C2.75135 16.2725 2.46977 15.9617 2.0853 15.9617C1.70082 15.9617 1.36084 16.2725 1.36084 16.657C1.36084 20.8285 4.17106 23.6387 8.3426 23.6387C8.72707 23.6387 9.03785 23.2987 9.03785 22.9143C9.03785 22.5298 8.72707 22.2482 8.3426 22.2482Z" fill="#5DADEC"/>
<path id="Vector_4" d="M4.86676 23.6094C2.781 23.6094 1.3905 22.2189 1.3905 20.1331C1.3905 19.7487 1.07973 19.4379 0.695251 19.4379C0.310777 19.4379 0 19.7487 0 20.1331C0 22.9142 2.08575 24.9999 4.86676 24.9999C5.25123 24.9999 5.56201 24.6891 5.56201 24.3047C5.56201 23.9202 5.25123 23.6094 4.86676 23.6094ZM16.686 1.36124C16.3022 1.36124 15.9908 1.67271 15.9908 2.05649C15.9908 2.44027 16.3022 2.75175 16.686 2.75175C19.467 2.75175 22.248 5.24702 22.248 8.31379C22.248 8.69757 22.5595 9.00905 22.9433 9.00905C23.3271 9.00905 23.6385 8.69757 23.6385 8.31379C23.6385 4.48015 20.8575 1.36124 16.686 1.36124Z" fill="#5DADEC"/>
<path id="Vector_5" d="M20.1625 0C19.7788 0 19.4673 0.282274 19.4673 0.666055C19.4673 1.04984 19.7788 1.39051 20.1625 1.39051C22.2483 1.39051 23.6096 2.93745 23.6096 4.83759C23.6096 5.22137 23.9496 5.53284 24.3341 5.53284C24.7185 5.53284 25.0001 5.22137 25.0001 4.83759C25.0001 2.16989 22.9436 0 20.1625 0Z" fill="#5DADEC"/>
</g>
</g>
</svg>
